<?xml version="1.0" standalone="no"?>
<!DOCTYPE svg PUBLIC "-//W3C//DTD SVG 20010904//EN"
 "http://www.w3.org/TR/2001/REC-SVG-20010904/DTD/svg10.dtd">
<svg version="1.0" xmlns="http://www.w3.org/2000/svg"
 width="603.000000pt" height="462.000000pt" viewBox="0 0 603.000000 462.000000"
 preserveAspectRatio="xMidYMid meet">

<g transform="translate(0.000000,462.000000) scale(0.100000,-0.100000)"
fill="#000000" stroke="none">
<path d="M4035 4533 c-3 -49 -15 -196 -26 -328 -12 -132 -25 -352 -30 -490 -5
-137 -14 -297 -20 -355 -6 -58 -12 -238 -13 -400 -3 -355 -3 -360 -18 -360
-13 0 -94 36 -191 86 -43 22 -76 33 -88 29 -15 -5 -17 -3 -12 11 5 14 2 16
-20 10 -20 -5 -27 -3 -27 9 0 16 -78 55 -107 54 -10 0 -13 -3 -7 -5 6 -3 9
-16 6 -29 -4 -22 -10 -25 -47 -25 -25 0 -50 6 -58 15 -8 8 -17 11 -21 8 -3 -3
-12 0 -20 6 -8 7 -24 10 -36 6 -24 -8 -28 16 -5 35 13 10 25 10 64 -3 34 -11
58 -13 78 -7 15 4 26 9 23 10 -3 1 -12 3 -20 5 -8 2 -42 11 -75 20 -33 9 -76
20 -95 24 l-35 7 3 79 c4 87 -4 149 -18 140 -5 -3 -12 6 -16 20 -3 14 -15 41
-25 62 -10 20 -16 40 -13 44 11 18 24 8 34 -23 8 -29 9 -27 4 17 -4 37 -16 63
-44 101 -42 56 -76 70 -111 46 -38 -27 -37 -33 -70 313 -16 175 -43 276 -105
393 -19 35 -34 74 -34 87 0 26 -35 65 -57 65 -7 0 -13 6 -13 14 0 8 -4 16 -9
18 -5 2 -11 36 -13 77 -1 41 -7 79 -13 85 -6 6 -19 25 -29 41 -20 34 -49 50
-111 61 -22 4 -43 11 -46 17 -4 5 -51 11 -105 13 -78 3 -109 0 -149 -15 -71
-26 -129 -33 -305 -36 -168 -2 -171 -3 -272 -73 -26 -17 -57 -32 -70 -32 -13
0 -28 -4 -34 -9 -5 -6 -39 -15 -75 -20 -70 -11 -133 -34 -144 -51 -3 -5 -25
-18 -48 -29 -23 -11 -49 -24 -57 -29 -37 -22 -61 -32 -73 -32 -28 0 -100 -67
-124 -115 -22 -42 -25 -57 -19 -109 3 -34 19 -88 36 -124 34 -73 39 -105 14
-95 -12 4 -15 2 -12 -8 3 -8 14 -14 24 -13 13 1 20 -6 21 -19 1 -11 7 -33 14
-49 7 -18 10 -66 6 -139 -6 -130 6 -196 64 -377 36 -113 38 -125 24 -145 -28
-40 -10 -158 27 -178 13 -7 18 -21 18 -49 0 -22 4 -59 10 -82 5 -24 14 -68 19
-98 5 -30 14 -73 20 -95 6 -22 13 -62 16 -90 3 -28 12 -53 20 -58 21 -11 19
-56 -2 -64 -15 -6 -14 -8 7 -13 34 -8 55 -56 91 -205 24 -102 37 -139 50 -143
8 -3 17 -10 21 -16 5 -8 8 -7 8 2 0 22 20 13 52 -24 18 -20 48 -47 68 -60 19
-13 60 -45 90 -70 65 -53 170 -116 223 -134 29 -9 43 -22 63 -58 13 -26 36
-67 50 -91 15 -25 22 -47 17 -52 -5 -5 -33 -13 -63 -19 -72 -13 -216 -58 -260
-80 -49 -25 -94 -71 -79 -81 9 -5 12 -39 12 -106 0 -54 2 -87 4 -73 2 14 7 32
10 40 11 28 12 60 2 60 -6 0 -7 4 -4 10 13 21 21 8 24 -37 1 -26 4 -50 7 -54
2 -4 -2 -9 -8 -12 -10 -3 -11 -9 0 -26 16 -27 15 -31 -3 -31 -8 0 -15 -8 -15
-17 0 -15 2 -16 10 -3 5 8 11 12 13 10 4 -4 -18 -155 -23 -155 -1 0 -4 -40 -6
-88 -4 -61 -2 -87 5 -82 6 3 11 17 11 31 0 15 6 24 15 24 19 0 20 19 1 26 -12
4 -11 10 1 36 11 20 18 26 23 18 4 -7 13 -9 19 -5 9 5 9 10 0 21 -6 7 -16 11
-22 7 -6 -4 -7 15 -2 58 4 35 9 82 11 104 2 22 6 56 9 75 3 19 7 45 9 58 1 12
6 25 9 29 4 3 7 23 7 44 0 30 3 37 15 32 9 -3 15 -2 14 3 -6 35 3 64 19 64 17
0 36 -29 82 -123 122 -250 195 -395 207 -408 12 -14 11 -22 -5 -60 -48 -111
-55 -291 -22 -539 11 -85 23 -163 26 -172 5 -16 25 -18 230 -18 l224 0 0 84
c0 129 -68 541 -110 672 -19 59 -12 87 54 198 35 60 76 122 90 137 14 15 26
31 26 36 1 4 32 29 70 56 39 26 70 53 70 60 -1 17 -76 70 -154 109 -36 18 -66
36 -66 41 0 5 13 26 28 46 15 20 33 49 40 64 7 16 41 72 75 125 76 117 87 137
127 227 95 214 137 347 171 545 21 125 30 140 86 140 33 0 83 -40 83 -67 0 -7
5 -13 11 -13 8 0 10 12 6 35 -7 45 10 46 19 1 3 -19 14 -42 25 -52 10 -9 16
-21 13 -25 -6 -11 20 -39 35 -39 6 0 11 -6 11 -12 0 -9 4 -8 10 2 7 11 4 19
-9 30 -10 8 -22 33 -26 55 -4 22 -14 48 -23 58 -14 16 -14 19 -2 27 22 14 28
12 40 -10 6 -11 19 -20 30 -20 10 0 31 -11 47 -24 27 -24 28 -24 9 -45 -11
-12 -17 -21 -15 -22 2 -1 26 -3 53 -5 28 -3 58 -12 67 -20 10 -9 33 -16 53
-17 19 0 33 -5 30 -9 -7 -11 5 -10 50 6 42 15 41 16 -22 36 -36 11 -43 17 -40
35 4 18 1 21 -19 17 -23 -4 -63 25 -63 45 0 5 -9 14 -20 21 -24 14 -26 32 -5
32 18 0 19 12 3 28 -9 9 -9 18 0 37 8 18 9 32 2 45 -12 22 13 90 33 90 7 0 23
-13 36 -29 13 -16 30 -27 37 -24 7 3 23 -2 36 -11 12 -9 30 -16 40 -16 10 0
18 -7 18 -15 0 -8 -4 -15 -10 -15 -5 0 -10 -4 -10 -9 0 -5 9 -7 20 -4 24 6 78
-14 103 -38 9 -10 39 -26 66 -35 36 -13 51 -25 59 -46 10 -28 44 -39 57 -18 8
13 40 13 63 1 9 -5 25 -12 36 -15 15 -5 16 -9 6 -21 -10 -12 -10 -15 3 -15 9
0 19 5 22 10 3 6 17 10 31 10 14 0 23 -4 20 -9 -10 -15 23 -34 49 -28 33 6 28
-13 -8 -31 -37 -18 -34 -32 7 -29 19 1 32 6 28 11 -3 5 5 6 19 3 13 -4 41 -10
62 -13 20 -4 40 -11 43 -15 3 -5 14 -9 24 -9 10 0 31 -12 47 -26 22 -21 25
-27 13 -34 -8 -6 -18 -10 -22 -10 -5 0 -8 -4 -8 -10 0 -12 47 -13 52 -1 6 15
107 19 119 5 6 -8 24 -14 39 -14 15 0 35 -9 45 -20 13 -14 14 -20 5 -20 -9 0
-7 -5 6 -15 18 -15 17 -15 -16 -13 -32 3 -35 1 -35 -24 1 -18 -4 -28 -14 -28
-11 0 -12 -3 -3 -12 8 -8 18 -8 33 -1 30 13 122 -22 171 -64 10 -9 24 -13 33
-10 9 4 15 1 15 -8 0 -9 6 -12 18 -8 15 6 14 3 -3 -17 l-20 -22 35 7 c46 10
50 13 50 36 0 15 -5 19 -19 14 -10 -3 -23 1 -30 9 -6 8 -20 12 -30 9 -9 -2
-23 3 -30 11 -8 9 -20 16 -27 16 -16 0 -18 9 -6 28 12 18 61 11 107 -14 22
-12 44 -22 50 -22 13 -1 19 -22 6 -22 -6 0 -11 -7 -11 -15 0 -9 9 -15 24 -15
40 0 56 11 56 39 0 18 3 22 9 12 5 -8 16 -11 31 -6 58 18 142 -30 180 -105 20
-40 17 -85 -6 -76 -8 3 -11 0 -7 -10 5 -14 -23 -103 -36 -114 -6 -5 -41 -102
-41 -114 0 -21 24 2 55 53 21 33 43 62 50 65 18 6 25 -47 18 -136 -4 -57 -1
-90 17 -152 12 -44 26 -123 31 -177 4 -53 18 -134 29 -180 65 -253 96 -520 67
-578 -15 -31 -12 -38 9 -23 12 8 41 83 47 122 2 14 5 4 6 -21 0 -25 8 -68 16
-95 8 -27 15 -85 15 -129 0 -44 5 -98 10 -120 6 -22 13 -97 17 -167 l6 -128
234 0 233 0 0 2310 0 2310 -994 0 -994 0 -7 -87z m-1647 -907 c7 -4 12 -13 12
-20 0 -8 6 -19 14 -25 20 -17 29 -73 14 -83 -10 -6 -7 -13 11 -27 22 -16 23
-24 18 -69 -6 -55 2 -68 39 -64 25 4 40 -34 23 -55 -6 -6 -7 -18 -3 -24 4 -7
-6 -23 -27 -41 -22 -19 -30 -31 -21 -35 19 -7 16 -93 -3 -93 -9 0 -15 -7 -13
-17 2 -12 -7 -20 -32 -26 -69 -19 -183 -58 -211 -72 -16 -9 -32 -15 -36 -15
-5 0 -28 -15 -53 -33 -24 -17 -51 -35 -60 -38 -11 -5 -9 -9 13 -19 15 -7 27
-16 27 -20 0 -4 10 -10 22 -13 l22 -6 -21 -23 c-14 -15 -19 -28 -14 -37 5 -7
6 -21 4 -31 -3 -10 0 -21 6 -24 6 -4 11 -19 11 -33 0 -21 4 -24 22 -19 28 7
88 -31 88 -56 0 -20 2 -21 24 -12 20 8 21 24 1 24 -8 0 -15 3 -15 8 0 4 -3 17
-6 28 -4 16 0 23 16 27 14 3 19 10 15 17 -5 9 -1 10 16 5 22 -7 23 -7 9 11 -8
10 -25 27 -37 37 -12 10 -20 24 -16 32 7 19 35 20 31 1 -2 -8 0 -14 3 -13 4 1
16 -7 28 -17 15 -14 25 -16 32 -9 6 6 28 9 50 6 44 -6 55 13 14 23 -37 9 -22
18 25 16 23 -2 40 2 40 8 0 5 3 9 8 8 4 -1 18 4 31 11 16 9 40 11 72 7 47 -6
119 16 119 36 0 5 -4 6 -10 3 -5 -3 -16 -3 -22 2 -9 5 -3 9 17 13 24 4 31 11
33 33 2 19 9 27 22 27 10 0 22 5 25 10 11 18 33 11 41 -12 13 -41 6 -149 -11
-168 -8 -9 -15 -29 -15 -44 0 -22 -4 -26 -18 -22 -17 6 -18 2 -11 -52 10 -74
6 -112 -14 -127 -12 -8 -13 -15 -6 -22 6 -6 8 -17 3 -24 -5 -9 -9 -8 -15 7 -7
18 -8 18 -9 -1 -3 -33 -44 -100 -62 -100 -10 0 -23 -6 -30 -13 -6 -6 -20 -12
-30 -12 -24 0 -152 77 -196 118 -7 6 -22 12 -32 12 -11 0 -23 6 -27 13 -12 20
-66 55 -96 62 -15 4 -33 17 -39 29 -6 11 -12 23 -14 25 -7 8 -35 -30 -48 -68
-13 -38 -12 -42 4 -54 10 -7 25 -29 33 -50 9 -20 20 -37 26 -37 5 0 25 13 43
30 34 31 60 39 55 18 -1 -7 4 -12 11 -11 37 8 -33 -59 -81 -77 -39 -14 -61
-25 -107 -51 -39 -22 -105 -20 -175 6 -22 8 -48 14 -57 15 -30 0 -20 -20 17
-36 20 -8 39 -21 42 -30 7 -19 -26 -51 -64 -60 -15 -4 -41 -17 -57 -30 -27
-21 -32 -21 -69 -8 -53 19 -57 18 -57 -11 0 -36 -26 -31 -40 8 -10 28 -12 30
-21 14 -13 -23 -29 -12 -29 20 0 15 -3 23 -7 20 -3 -4 -12 -2 -20 4 -9 9 -13
8 -13 0 0 -6 -4 -11 -9 -11 -6 0 -13 20 -17 45 -3 25 -10 45 -14 45 -12 0 -52
91 -46 105 2 7 -8 24 -24 38 -35 32 -72 128 -71 186 0 24 3 46 5 49 7 6 140
-20 147 -30 3 -5 15 -10 28 -13 25 -5 39 18 23 38 -8 10 -6 22 8 45 23 37 35
40 43 12 3 -11 22 -27 43 -36 l38 -16 28 31 c15 17 28 40 28 51 0 25 5 25 47
-1 27 -17 31 -24 22 -35 -6 -8 -19 -14 -28 -15 -11 0 -12 -2 -3 -6 7 -3 26 0
42 7 23 10 33 9 55 -6 23 -15 28 -15 40 -3 11 11 13 30 9 80 l-7 66 -61 12
c-33 6 -128 12 -211 13 -82 1 -157 5 -165 11 -11 6 -28 4 -53 -6 -25 -11 -39
-12 -43 -5 -4 6 0 14 7 19 11 6 11 11 1 21 -13 13 -17 104 -6 133 4 9 17 20
29 25 18 7 21 14 17 39 -2 18 -10 31 -18 31 -8 0 -14 10 -14 26 0 14 -9 33
-21 43 -18 14 -22 31 -26 108 l-6 91 44 25 c37 22 68 28 204 42 118 12 182 24
246 46 48 16 96 29 108 29 12 0 29 5 39 10 9 6 55 19 102 31 47 11 99 24 115
29 34 9 126 7 143 -4z m755 -564 c19 -20 42 -116 33 -137 -10 -27 -26 -15 -26
19 0 36 -23 101 -40 111 -5 3 -10 10 -10 16 0 15 26 10 43 -9z m-37 -85 c9
-27 -4 -67 -21 -67 -8 0 -15 7 -15 15 0 8 -5 15 -11 15 -6 0 -9 9 -6 19 3 12
-3 27 -13 36 -10 9 -16 23 -14 30 7 17 70 -22 80 -48z m-546 -76 c0 -13 -48
-61 -60 -61 -7 0 -10 3 -8 8 2 4 10 24 17 44 12 31 17 35 33 27 10 -5 18 -13
18 -18z m-167 -26 c19 -23 37 -35 55 -36 20 -1 22 -3 8 -6 -11 -3 -53 -2 -94
2 l-74 7 33 34 c18 19 35 34 38 34 4 0 19 -16 34 -35z m810 -23 c-3 -12 -9
-22 -14 -22 -12 0 -11 7 2 32 13 25 20 19 12 -10z m-64 9 c12 -8 13 -16 3 -50
-7 -22 -11 -46 -10 -53 5 -23 -26 -14 -40 12 -12 22 -11 30 2 63 17 39 22 42
45 28z m-1414 -91 c3 -5 1 -10 -4 -10 -6 0 -11 5 -11 10 0 6 2 10 4 10 3 0 8
-4 11 -10z m1737 -82 c-7 -7 -12 -8 -12 -2 0 6 3 14 7 17 3 4 9 5 12 2 2 -3
-1 -11 -7 -17z m-357 -33 c14 -14 25 -34 25 -43 -1 -13 -4 -11 -14 7 -9 17
-15 20 -21 11 -9 -15 -25 5 -25 33 0 23 4 22 35 -8z m142 3 c-3 -8 -6 -5 -6 6
-1 11 2 17 5 13 3 -3 4 -12 1 -19z m126 -14 c-4 -14 -56 -11 -60 4 -3 8 5 11
29 8 18 -2 32 -7 31 -12z m78 -57 c-7 -7 -18 -5 -35 7 -35 23 -33 39 4 34 17
-3 31 0 31 6 1 6 4 0 6 -13 3 -13 0 -28 -6 -34z m-161 -11 c0 -3 -4 -8 -10
-11 -5 -3 -10 -1 -10 4 0 6 5 11 10 11 6 0 10 -2 10 -4z m670 -36 c13 -8 13
-10 -2 -10 -9 0 -20 5 -23 10 -8 13 5 13 25 0z m-1538 -142 c32 -35 58 -64 58
-65 0 -1 -15 4 -32 11 -18 8 -58 13 -88 11 -30 -2 -47 -1 -38 2 12 3 19 19 24
54 4 27 9 49 12 49 4 0 32 -28 64 -62z m1913 -8 c3 -5 1 -10 -4 -10 -6 0 -11
5 -11 10 0 6 2 10 4 10 3 0 8 -4 11 -10z m-2105 -160 c-15 -9 -4 -30 15 -30 7
0 15 5 17 12 2 6 10 8 16 4 18 -11 4 -26 -23 -26 -13 0 -41 -11 -62 -25 -30
-21 -48 -26 -93 -24 -30 1 -89 -2 -130 -6 l-75 -7 35 24 c37 26 102 48 140 48
27 0 84 17 119 35 26 14 63 9 41 -5z m-499 -93 c-8 -8 -11 -7 -11 4 0 9 3 19
7 23 4 4 9 2 11 -4 3 -7 -1 -17 -7 -23z m3046 -3 c-3 -3 -12 -4 -19 -1 -8 3
-5 6 6 6 11 1 17 -2 13 -5z m-2442 -36 c-1 -12 -8 -24 -16 -27 -8 -2 -18 -10
-24 -17 -5 -7 -28 -22 -50 -35 -52 -29 -209 -34 -228 -8 -7 9 -17 14 -24 12
-13 -5 -37 33 -26 40 5 3 51 8 103 12 94 7 157 18 195 35 52 23 72 19 70 -12z
m-435 -52 c0 -3 -4 -8 -10 -11 -5 -3 -10 -1 -10 4 0 6 5 11 10 11 6 0 10 -2
10 -4z m-40 -66 c0 -5 -2 -10 -4 -10 -3 0 -8 5 -11 10 -3 6 -1 10 4 10 6 0 11
-4 11 -10z m595 -6 c19 -12 25 -25 25 -51 0 -30 -3 -34 -20 -28 -14 4 -20 2
-20 -9 0 -31 -62 -105 -94 -112 -17 -3 -38 -13 -47 -20 -11 -10 -35 -14 -77
-11 -36 2 -63 -1 -65 -7 -2 -6 -14 -5 -35 3 -17 7 -36 10 -41 6 -6 -3 -11 -2
-11 3 0 5 -13 15 -28 21 -49 20 -79 53 -78 86 1 22 -5 33 -21 40 -13 5 -23 18
-23 27 0 21 1 21 35 6 18 -8 22 -14 13 -20 -9 -5 -6 -8 10 -8 12 0 22 3 22 8
0 4 36 6 79 6 87 -2 264 32 316 60 36 19 31 19 60 0z m-575 -25 c0 -5 5 -7 10
-4 6 3 10 1 10 -4 0 -16 -16 -13 -30 4 -9 10 -9 15 -1 15 6 0 11 -5 11 -11z
m239 -599 c83 -34 101 -37 101 -14 0 13 7 15 32 10 33 -6 68 -32 68 -49 0 -5
-7 -6 -16 -3 -13 5 -15 2 -10 -16 18 -61 44 -163 42 -165 -17 -18 -248 144
-272 191 -11 21 -27 76 -22 76 2 0 36 -14 77 -30z m560 -19 c12 -8 7 -18 -24
-53 -45 -50 -73 -71 -135 -100 -141 -66 -175 -73 -161 -37 5 14 18 23 35 25
31 3 86 42 131 92 32 35 100 80 125 81 8 0 21 -3 29 -8z m-844 -71 c-3 -5 -12
-10 -18 -10 -7 0 -6 4 3 10 19 12 23 12 15 0z m-25 -30 c0 -5 -2 -10 -4 -10
-3 0 -8 5 -11 10 -3 6 -1 10 4 10 6 0 11 -4 11 -10z m1 -50 c4 -37 2 -54 -7
-57 -6 -2 -10 11 -10 32 1 31 14 51 17 25z"/>
<path d="M2720 2858 c0 -16 20 -48 30 -48 20 0 10 48 -10 53 -11 3 -20 1 -20
-5z"/>
<path d="M1726 2678 c-90 -9 -150 -27 -94 -28 15 0 47 -5 71 -11 36 -10 48 -9
80 6 20 9 37 24 37 31 0 8 -1 13 -2 13 -2 -1 -43 -6 -92 -11z"/>
<path d="M2321 2584 c0 -11 3 -14 6 -6 3 7 2 16 -1 19 -3 4 -6 -2 -5 -13z"/>
<path d="M1910 2465 c-11 -13 -10 -18 6 -30 26 -19 34 -19 34 4 0 29 -24 45
-40 26z"/>
<path d="M1817 2306 c-18 -14 -23 -36 -9 -36 14 0 44 38 35 43 -5 3 -16 0 -26
-7z"/>
<path d="M2100 2180 c0 -5 7 -10 15 -10 8 0 15 5 15 10 0 6 -7 10 -15 10 -8 0
-15 -4 -15 -10z"/>
<path d="M2380 1830 c0 -5 5 -10 10 -10 6 0 10 5 10 10 0 6 -4 10 -10 10 -5 0
-10 -4 -10 -10z"/>
<path d="M2765 4300 c-3 -5 -1 -10 4 -10 6 0 11 5 11 10 0 6 -2 10 -4 10 -3 0
-8 -4 -11 -10z"/>
<path d="M2798 4303 c6 -2 18 -2 25 0 6 3 1 5 -13 5 -14 0 -19 -2 -12 -5z"/>
<path d="M3222 3125 c0 -16 2 -22 5 -12 2 9 2 23 0 30 -3 6 -5 -1 -5 -18z"/>
<path d="M3516 2603 c-11 -11 -6 -23 8 -23 8 0 17 4 20 9 7 10 -19 23 -28 14z"/>
<path d="M3632 2555 c-14 -31 -15 -55 -3 -55 9 0 26 69 18 76 -2 2 -9 -7 -15
-21z"/>
<path d="M4038 2453 c6 -2 18 -2 25 0 6 3 1 5 -13 5 -14 0 -19 -2 -12 -5z"/>
<path d="M4143 2432 c-9 -6 -6 -11 7 -20 21 -13 26 -6 12 15 -4 7 -13 9 -19 5z"/>
<path d="M3235 2420 c3 -5 10 -10 16 -10 5 0 9 5 9 10 0 6 -7 10 -16 10 -8 0
-12 -4 -9 -10z"/>
<path d="M1351 2404 c0 -11 3 -14 6 -6 3 7 2 16 -1 19 -3 4 -6 -2 -5 -13z"/>
<path d="M4310 2332 c0 -8 41 -27 80 -36 24 -7 24 -6 -2 9 -16 9 -28 20 -28
25 0 6 -11 10 -25 10 -14 0 -25 -3 -25 -8z"/>
<path d="M3493 2248 c20 -7 27 -16 27 -35 0 -33 5 -27 13 15 6 32 6 32 -31 31
-37 -1 -37 -1 -9 -11z"/>
<path d="M4332 2205 c-17 -19 -1 -19 24 0 14 11 15 14 4 14 -8 0 -21 -6 -28
-14z"/>
<path d="M4576 2205 c4 -8 16 -15 28 -15 21 1 21 1 2 15 -25 19 -37 19 -30 0z"/>
<path d="M3547 2088 c-2 -8 2 -23 10 -33 13 -19 14 -18 7 10 -8 37 -10 39 -17
23z"/>
<path d="M4826 1942 c-3 -6 -1 -14 5 -17 15 -10 25 3 12 16 -7 7 -13 7 -17 1z"/>
<path d="M5114 1572 c-7 -4 -14 -20 -15 -37 -2 -16 -8 -33 -14 -37 -6 -5 -6
-8 1 -8 17 0 37 27 29 39 -3 6 -1 20 5 31 12 22 11 23 -6 12z"/>
<path d="M5066 1471 c-4 -7 -5 -15 -2 -18 9 -9 19 4 14 18 -4 11 -6 11 -12 0z"/>
<path d="M5036 1415 c-3 -8 -1 -15 4 -15 6 0 10 7 10 15 0 8 -2 15 -4 15 -2 0
-6 -7 -10 -15z"/>
<path d="M4987 1333 c-4 -10 -13 -34 -22 -53 l-15 -35 20 25 c11 14 20 30 20
36 0 7 7 15 16 18 8 3 12 10 9 16 -9 15 -22 12 -28 -7z"/>
<path d="M4913 1184 c-12 -24 -19 -44 -14 -44 9 0 46 78 40 84 -2 2 -14 -16
-26 -40z"/>
<path d="M1865 1200 c3 -5 8 -10 11 -10 2 0 4 5 4 10 0 6 -5 10 -11 10 -5 0
-7 -4 -4 -10z"/>
<path d="M4870 1081 c0 -5 5 -13 10 -16 6 -3 10 -2 10 4 0 5 -4 13 -10 16 -5
3 -10 2 -10 -4z"/>
<path d="M4845 1061 c-3 -12 -11 -21 -16 -21 -6 0 -8 -4 -5 -9 4 -5 1 -12 -4
-14 -6 -3 -5 -4 2 -3 14 3 43 54 35 63 -3 2 -8 -5 -12 -16z"/>
<path d="M5101 989 c-13 -11 -22 -22 -19 -24 7 -7 57 19 63 33 7 18 -17 14
-44 -9z"/>
<path d="M4760 914 c-7 -19 -13 -41 -14 -47 -1 -7 -5 -18 -9 -25 -5 -7 -5 -22
-1 -34 6 -21 7 -21 20 5 8 15 14 39 13 54 -1 16 2 40 6 56 11 40 -1 33 -15 -9z"/>
<path d="M4734 772 c-14 -9 -64 -89 -64 -102 0 -23 17 -6 48 47 32 55 36 68
16 55z"/>
<path d="M1776 661 c-9 -14 4 -41 20 -41 15 0 17 10 8 34 -7 18 -20 21 -28 7z"/>
<path d="M4800 640 c0 -11 -89 -95 -134 -127 -17 -12 -44 -25 -59 -29 l-28 -6
6 68 6 69 -16 -45 c-17 -48 -32 -84 -46 -112 -5 -10 -9 -24 -9 -32 0 -14 -36
-46 -52 -46 -5 0 -8 9 -8 20 0 43 -18 17 -25 -35 -7 -57 -12 -64 -34 -42 -11
10 -12 8 -6 -11 6 -20 4 -22 -17 -17 -31 8 -56 -18 -39 -39 7 -9 8 -17 2 -20
-5 -3 -12 -29 -16 -57 -7 -49 -20 -56 -27 -14 -2 12 2 19 10 17 6 -1 12 2 12
7 0 10 -34 21 -67 21 -20 0 -63 31 -63 45 0 3 18 5 39 5 34 0 71 19 71 37 0 3
-13 22 -29 42 -50 63 -156 104 -156 61 0 -8 -10 -21 -23 -28 -12 -7 -20 -17
-17 -22 3 -5 -8 -23 -25 -40 -16 -17 -30 -39 -30 -50 0 -11 -9 -24 -20 -30
-11 -6 -35 -31 -54 -55 -19 -25 -36 -40 -38 -34 -3 9 -9 9 -25 0 -12 -6 -40
-11 -62 -11 -58 0 -234 -36 -271 -55 -36 -18 -70 -50 -70 -65 0 -6 112 -10
316 -10 l317 0 53 42 c29 24 53 47 54 51 0 10 41 46 53 47 26 1 -44 -83 -103
-123 -24 -16 -20 -16 95 -14 l120 2 3 38 c3 35 -11 51 -21 25 -3 -8 -6 -8 -6
-2 -2 22 38 45 93 54 31 5 61 12 66 15 17 10 11 27 -7 21 -10 -3 -25 -1 -33 4
-13 9 -11 13 9 29 14 10 30 17 35 15 6 -2 29 10 50 28 34 27 36 33 20 38 -16
6 -16 9 9 31 15 13 53 39 85 57 31 17 47 31 35 29 -11 -2 -27 -8 -35 -14 -23
-18 -88 -35 -106 -27 -9 4 -20 6 -24 6 -4 -1 0 14 9 33 11 22 37 47 75 70 32
20 58 39 58 43 0 4 25 34 55 67 48 51 67 85 50 85 -3 0 -5 -4 -5 -10z m-673
-402 c-3 -8 -6 -5 -6 6 -1 11 2 17 5 13 3 -3 4 -12 1 -19z m94 -99 c-24 -26
-71 -34 -71 -13 0 7 16 16 35 20 19 3 38 11 41 16 3 5 8 7 11 4 3 -2 -5 -15
-16 -27z m93 -35 c3 -8 2 -12 -4 -9 -6 3 -10 10 -10 16 0 14 7 11 14 -7z
m-194 2 c0 -2 3 -12 7 -22 5 -14 2 -16 -15 -12 -12 4 -22 2 -22 -4 0 -5 -4 -7
-9 -4 -5 3 -12 -2 -15 -11 -6 -15 -9 -15 -16 -3 -6 10 0 20 23 37 29 21 47 29
47 19z"/>
<path d="M1814 534 c-5 -19 -12 -24 -25 -21 -27 7 -35 -12 -13 -28 11 -9 14
-14 7 -15 -23 0 -13 -15 18 -27 27 -10 30 -10 25 4 -5 13 0 15 29 10 44 -7 45
6 2 27 -29 13 -33 19 -29 46 5 37 -5 40 -14 4z"/>
<path d="M4440 465 c0 -8 4 -15 10 -15 5 0 7 7 4 15 -4 8 -8 15 -10 15 -2 0
-4 -7 -4 -15z"/>
<path d="M310 425 c7 -8 19 -15 27 -15 13 0 13 3 3 15 -7 8 -19 15 -27 15 -13
0 -13 -3 -3 -15z"/>
<path d="M1777 353 c2 -38 6 -75 9 -83 3 -8 7 -42 10 -75 4 -53 16 -125 31
-177 4 -15 17 -18 89 -18 55 0 84 4 84 11 0 6 -7 9 -15 5 -9 -3 -15 0 -15 8 0
8 6 17 13 19 7 3 5 6 -5 6 -22 1 -24 31 -3 31 8 0 15 5 15 10 0 6 -7 10 -15
10 -16 0 -18 7 -15 90 2 66 -5 64 -15 -5 -7 -60 -12 -65 -48 -58 -21 4 -27 10
-25 27 2 15 -2 20 -14 18 -10 -2 -18 3 -18 12 0 10 7 12 22 8 14 -3 19 -2 14
6 -4 7 -14 12 -22 12 -19 0 -18 12 6 38 21 22 28 44 8 24 -19 -19 -38 -14 -38
9 0 17 -3 19 -14 10 -11 -9 -15 -8 -20 5 -9 24 -7 77 4 94 8 11 9 8 4 -11 -3
-15 -1 -30 5 -33 7 -4 11 1 11 13 0 12 6 21 13 21 15 1 -31 40 -47 40 -9 0
-11 -20 -9 -67z m53 -123 c0 -5 -4 -10 -10 -10 -5 0 -10 5 -10 10 0 6 5 10 10
10 6 0 10 -4 10 -10z m105 -150 c3 -5 2 -10 -4 -10 -5 0 -13 5 -16 10 -3 6 -2
10 4 10 5 0 13 -4 16 -10z"/>
<path d="M543 385 c3 -11 8 -28 12 -37 5 -12 1 -17 -17 -20 -21 -3 -20 -5 12
-21 23 -11 42 -32 55 -60 11 -23 25 -46 31 -52 7 -5 15 -19 18 -31 5 -17 -2
-25 -44 -48 -42 -23 -49 -31 -44 -50 5 -21 2 -22 -44 -23 -28 0 -64 -9 -88
-21 l-39 -21 121 -1 c129 0 187 7 178 21 -3 5 -23 9 -44 9 -51 0 -70 8 -70 31
0 13 10 20 38 24 20 3 48 8 60 11 18 4 32 -4 58 -31 19 -20 34 -43 34 -51 0
-10 13 -14 45 -14 32 0 45 4 45 14 0 22 -53 76 -74 76 -15 0 -17 3 -8 12 8 8
4 20 -18 49 -17 20 -30 43 -30 50 0 12 -2 12 -9 1 -6 -11 -13 -8 -27 11 -11
13 -29 27 -41 31 -12 4 -24 13 -26 21 -3 7 -18 32 -34 56 -15 23 -34 51 -41
63 -13 20 -13 20 -9 1z"/>
<path d="M5270 320 c-19 -16 -32 -30 -28 -30 20 -1 58 22 68 40 15 28 1 25
-40 -10z"/>
<path d="M5437 333 c-4 -3 -7 -11 -7 -17 0 -6 5 -5 12 2 6 6 9 14 7 17 -3 3
-9 2 -12 -2z"/>
<path d="M5275 233 c-35 -19 -55 -38 -55 -52 0 -6 23 5 50 25 28 20 50 38 50
40 0 8 -15 3 -45 -13z"/>
<path d="M456 220 c-11 -3 -15 -9 -10 -12 7 -5 108 -21 138 -23 18 0 17 23 -1
30 -25 10 -104 14 -127 5z"/>
<path d="M5131 154 c0 -11 3 -14 6 -6 3 7 2 16 -1 19 -3 4 -6 -2 -5 -13z"/>
<path d="M911 14 c0 -11 3 -14 6 -6 3 7 2 16 -1 19 -3 4 -6 -2 -5 -13z"/>
</g>
</svg>
