<svg xmlns="http://www.w3.org/2000/svg" xmlns:xlink="http://www.w3.org/1999/xlink" width="109" zoomAndPan="magnify" viewBox="0 0 81.75 42.75" height="57" preserveAspectRatio="xMidYMid meet" version="1.0"><defs><g/><clipPath id="6e077a8a99"><path d="M 0.113281 0 L 81.386719 0 L 81.386719 42.5 L 0.113281 42.5 Z M 0.113281 0 " clip-rule="nonzero"/></clipPath></defs><g clip-path="url(#6e077a8a99)"><path fill="#ffffff" d="M 0.113281 0 L 81.386719 0 L 81.386719 42.5 L 0.113281 42.5 Z M 0.113281 0 " fill-opacity="1" fill-rule="nonzero"/><path fill="#ffffff" d="M 0.113281 0 L 81.386719 0 L 81.386719 42.5 L 0.113281 42.5 Z M 0.113281 0 " fill-opacity="1" fill-rule="nonzero"/></g><g fill="#ffffff" fill-opacity="1"><g transform="translate(25.078653, 30.662213)"><g><path d="M 1 0 L 1 -0.625 L 3.125 -0.765625 L 3.125 -18.921875 L 1 -19.046875 L 1 -19.671875 L 6.90625 -19.671875 L 12.65625 -5 L 12.6875 -5 L 18.09375 -19.671875 L 23.734375 -19.671875 L 23.734375 -19.046875 L 21.609375 -18.921875 L 21.609375 -0.765625 L 23.734375 -0.625 L 23.734375 0 L 15.96875 0 L 15.96875 -0.625 L 18.09375 -0.765625 L 18.109375 -17.625 L 18.09375 -17.625 L 11.546875 0.28125 L 11.03125 0.28125 L 3.75 -18.265625 L 3.71875 -18.265625 L 3.921875 -0.765625 L 6.015625 -0.625 L 6.015625 0 Z M 1 0 "/></g></g></g><g fill="#8415ff" fill-opacity="1"><g transform="translate(41.647196, 30.264647)"><g><path d="M 7.625 -18.671875 C 6.988281 -18.671875 6.429688 -18.59375 5.953125 -18.4375 C 5.472656 -18.289062 5.066406 -18.078125 4.734375 -17.796875 C 4.410156 -17.523438 4.164062 -17.195312 4 -16.8125 C 3.832031 -16.425781 3.75 -16.003906 3.75 -15.546875 C 3.75 -15.222656 3.789062 -14.898438 3.875 -14.578125 C 3.96875 -14.265625 4.160156 -13.941406 4.453125 -13.609375 C 4.742188 -13.273438 5.164062 -12.929688 5.71875 -12.578125 C 6.269531 -12.222656 7.015625 -11.84375 7.953125 -11.4375 C 9.035156 -10.9375 9.953125 -10.46875 10.703125 -10.03125 C 11.453125 -9.601562 12.0625 -9.144531 12.53125 -8.65625 C 13 -8.175781 13.332031 -7.628906 13.53125 -7.015625 C 13.738281 -6.410156 13.84375 -5.691406 13.84375 -4.859375 C 13.84375 -4.222656 13.710938 -3.582031 13.453125 -2.9375 C 13.203125 -2.300781 12.816406 -1.734375 12.296875 -1.234375 C 11.785156 -0.734375 11.140625 -0.320312 10.359375 0 C 9.578125 0.3125 8.660156 0.46875 7.609375 0.46875 C 6.429688 0.46875 5.445312 0.359375 4.65625 0.140625 C 3.863281 -0.078125 3.222656 -0.359375 2.734375 -0.703125 C 2.253906 -1.046875 1.90625 -1.4375 1.6875 -1.875 C 1.476562 -2.3125 1.375 -2.753906 1.375 -3.203125 C 1.375 -3.492188 1.414062 -3.765625 1.5 -4.015625 C 1.59375 -4.265625 1.722656 -4.484375 1.890625 -4.671875 C 2.066406 -4.867188 2.28125 -5.019531 2.53125 -5.125 C 2.789062 -5.238281 3.078125 -5.296875 3.390625 -5.296875 C 3.679688 -5.296875 3.945312 -5.242188 4.1875 -5.140625 C 4.425781 -5.035156 4.628906 -4.894531 4.796875 -4.71875 C 4.960938 -4.550781 5.085938 -4.347656 5.171875 -4.109375 C 5.265625 -3.878906 5.3125 -3.628906 5.3125 -3.359375 C 5.3125 -2.734375 5.128906 -2.257812 4.765625 -1.9375 C 4.410156 -1.613281 3.945312 -1.453125 3.375 -1.453125 L 3.375 -1.40625 C 3.4375 -1.332031 3.554688 -1.234375 3.734375 -1.109375 C 3.910156 -0.984375 4.160156 -0.859375 4.484375 -0.734375 C 4.804688 -0.617188 5.203125 -0.515625 5.671875 -0.421875 C 6.148438 -0.328125 6.710938 -0.28125 7.359375 -0.28125 C 7.890625 -0.28125 8.414062 -0.347656 8.9375 -0.484375 C 9.46875 -0.628906 9.9375 -0.832031 10.34375 -1.09375 C 10.757812 -1.363281 11.09375 -1.6875 11.34375 -2.0625 C 11.601562 -2.445312 11.734375 -2.878906 11.734375 -3.359375 C 11.734375 -3.765625 11.660156 -4.144531 11.515625 -4.5 C 11.367188 -4.851562 11.085938 -5.210938 10.671875 -5.578125 C 10.253906 -5.941406 9.675781 -6.332031 8.9375 -6.75 C 8.195312 -7.175781 7.234375 -7.65625 6.046875 -8.1875 C 5.171875 -8.5625 4.453125 -8.96875 3.890625 -9.40625 C 3.328125 -9.851562 2.882812 -10.328125 2.5625 -10.828125 C 2.238281 -11.328125 2.015625 -11.847656 1.890625 -12.390625 C 1.773438 -12.941406 1.71875 -13.503906 1.71875 -14.078125 C 1.71875 -14.804688 1.847656 -15.492188 2.109375 -16.140625 C 2.367188 -16.785156 2.75 -17.347656 3.25 -17.828125 C 3.757812 -18.304688 4.382812 -18.6875 5.125 -18.96875 C 5.863281 -19.25 6.707031 -19.390625 7.65625 -19.390625 C 8.5625 -19.390625 9.351562 -19.285156 10.03125 -19.078125 C 10.707031 -18.867188 11.265625 -18.585938 11.703125 -18.234375 C 12.148438 -17.890625 12.484375 -17.484375 12.703125 -17.015625 C 12.929688 -16.546875 13.046875 -16.0625 13.046875 -15.5625 C 13.046875 -15.300781 13 -15.046875 12.90625 -14.796875 C 12.820312 -14.554688 12.691406 -14.34375 12.515625 -14.15625 C 12.347656 -13.976562 12.140625 -13.832031 11.890625 -13.71875 C 11.648438 -13.613281 11.367188 -13.5625 11.046875 -13.5625 C 10.753906 -13.5625 10.488281 -13.609375 10.25 -13.703125 C 10.007812 -13.796875 9.800781 -13.925781 9.625 -14.09375 C 9.457031 -14.269531 9.328125 -14.472656 9.234375 -14.703125 C 9.140625 -14.929688 9.09375 -15.179688 9.09375 -15.453125 C 9.09375 -15.765625 9.144531 -16.039062 9.25 -16.28125 C 9.363281 -16.53125 9.507812 -16.734375 9.6875 -16.890625 C 9.875 -17.054688 10.085938 -17.179688 10.328125 -17.265625 C 10.578125 -17.347656 10.84375 -17.390625 11.125 -17.390625 L 11.125 -17.453125 C 11.070312 -17.515625 10.96875 -17.613281 10.8125 -17.75 C 10.65625 -17.882812 10.429688 -18.019531 10.140625 -18.15625 C 9.859375 -18.289062 9.507812 -18.410156 9.09375 -18.515625 C 8.6875 -18.617188 8.195312 -18.671875 7.625 -18.671875 Z M 7.625 -18.671875 "/></g></g></g></svg>