<svg xmlns="http://www.w3.org/2000/svg" xmlns:xlink="http://www.w3.org/1999/xlink" width="109" zoomAndPan="magnify" viewBox="0 0 81.75 42.75" height="57" preserveAspectRatio="xMidYMid meet" version="1.0"><defs><g/><clipPath id="c480cb87c3"><path d="M 0.113281 0 L 81.386719 0 L 81.386719 42.5 L 0.113281 42.5 Z M 0.113281 0 " clip-rule="nonzero"/></clipPath><clipPath id="778a7ad287"><path d="M 31 11.78125 L 52.609375 11.78125 L 52.609375 28.929688 L 31 28.929688 Z M 31 11.78125 " clip-rule="nonzero"/></clipPath></defs><g clip-path="url(#c480cb87c3)"><path fill="#ffffff" d="M 0.113281 0 L 81.386719 0 L 81.386719 42.5 L 0.113281 42.5 Z M 0.113281 0 " fill-opacity="1" fill-rule="nonzero"/><path fill="#000202" d="M 0.113281 0 L 81.386719 0 L 81.386719 42.5 L 0.113281 42.5 Z M 0.113281 0 " fill-opacity="1" fill-rule="nonzero"/></g><g fill="#ffffff" fill-opacity="1"><g transform="translate(13.50078, 27.215844)"><g><path d="M 0.703125 0 L 0.703125 -0.4375 L 2.203125 -0.53125 L 2.203125 -13.3125 L 0.703125 -13.40625 L 0.703125 -13.84375 L 4.859375 -13.84375 L 8.90625 -3.515625 L 8.921875 -3.515625 L 12.734375 -13.84375 L 16.71875 -13.84375 L 16.71875 -13.40625 L 15.21875 -13.3125 L 15.21875 -0.53125 L 16.71875 -0.4375 L 16.71875 0 L 11.234375 0 L 11.234375 -0.4375 L 12.734375 -0.53125 L 12.75 -12.40625 L 12.734375 -12.40625 L 8.125 0.1875 L 7.765625 0.1875 L 2.640625 -12.859375 L 2.625 -12.859375 L 2.765625 -0.53125 L 4.234375 -0.4375 L 4.234375 0 Z M 0.703125 0 "/></g></g></g><g fill="#ffffff" fill-opacity="1"><g transform="translate(51.786156, 27.21583)"><g><path d="M 5.578125 -13.65625 C 5.109375 -13.65625 4.695312 -13.597656 4.34375 -13.484375 C 4 -13.378906 3.707031 -13.222656 3.46875 -13.015625 C 3.226562 -12.816406 3.046875 -12.578125 2.921875 -12.296875 C 2.804688 -12.015625 2.75 -11.707031 2.75 -11.375 C 2.75 -11.132812 2.78125 -10.894531 2.84375 -10.65625 C 2.90625 -10.425781 3.039062 -10.191406 3.25 -9.953125 C 3.46875 -9.710938 3.78125 -9.460938 4.1875 -9.203125 C 4.59375 -8.941406 5.140625 -8.660156 5.828125 -8.359375 C 6.609375 -8.003906 7.269531 -7.664062 7.8125 -7.34375 C 8.363281 -7.03125 8.8125 -6.691406 9.15625 -6.328125 C 9.5 -5.972656 9.742188 -5.570312 9.890625 -5.125 C 10.046875 -4.6875 10.125 -4.160156 10.125 -3.546875 C 10.125 -3.085938 10.03125 -2.625 9.84375 -2.15625 C 9.65625 -1.6875 9.375 -1.265625 9 -0.890625 C 8.625 -0.523438 8.148438 -0.226562 7.578125 0 C 7.003906 0.226562 6.332031 0.34375 5.5625 0.34375 C 4.707031 0.34375 3.988281 0.257812 3.40625 0.09375 C 2.820312 -0.0625 2.351562 -0.265625 2 -0.515625 C 1.644531 -0.765625 1.390625 -1.050781 1.234375 -1.375 C 1.085938 -1.695312 1.015625 -2.019531 1.015625 -2.34375 C 1.015625 -2.550781 1.046875 -2.75 1.109375 -2.9375 C 1.171875 -3.125 1.265625 -3.285156 1.390625 -3.421875 C 1.515625 -3.554688 1.671875 -3.664062 1.859375 -3.75 C 2.046875 -3.832031 2.253906 -3.875 2.484375 -3.875 C 2.691406 -3.875 2.882812 -3.835938 3.0625 -3.765625 C 3.238281 -3.691406 3.382812 -3.585938 3.5 -3.453125 C 3.625 -3.328125 3.71875 -3.175781 3.78125 -3 C 3.851562 -2.832031 3.890625 -2.648438 3.890625 -2.453125 C 3.890625 -1.992188 3.753906 -1.644531 3.484375 -1.40625 C 3.222656 -1.175781 2.882812 -1.0625 2.46875 -1.0625 L 2.46875 -1.03125 C 2.507812 -0.976562 2.597656 -0.90625 2.734375 -0.8125 C 2.867188 -0.71875 3.050781 -0.625 3.28125 -0.53125 C 3.519531 -0.445312 3.8125 -0.367188 4.15625 -0.296875 C 4.5 -0.234375 4.910156 -0.203125 5.390625 -0.203125 C 5.773438 -0.203125 6.160156 -0.253906 6.546875 -0.359375 C 6.929688 -0.460938 7.273438 -0.609375 7.578125 -0.796875 C 7.878906 -0.992188 8.125 -1.234375 8.3125 -1.515625 C 8.5 -1.796875 8.59375 -2.109375 8.59375 -2.453125 C 8.59375 -2.753906 8.535156 -3.03125 8.421875 -3.28125 C 8.316406 -3.539062 8.109375 -3.804688 7.796875 -4.078125 C 7.492188 -4.347656 7.070312 -4.632812 6.53125 -4.9375 C 5.988281 -5.25 5.285156 -5.597656 4.421875 -5.984375 C 3.785156 -6.253906 3.257812 -6.550781 2.84375 -6.875 C 2.4375 -7.207031 2.113281 -7.554688 1.875 -7.921875 C 1.644531 -8.285156 1.484375 -8.664062 1.390625 -9.0625 C 1.296875 -9.46875 1.25 -9.878906 1.25 -10.296875 C 1.25 -10.828125 1.34375 -11.328125 1.53125 -11.796875 C 1.726562 -12.273438 2.007812 -12.6875 2.375 -13.03125 C 2.75 -13.382812 3.207031 -13.664062 3.75 -13.875 C 4.289062 -14.082031 4.90625 -14.1875 5.59375 -14.1875 C 6.257812 -14.1875 6.835938 -14.109375 7.328125 -13.953125 C 7.828125 -13.796875 8.238281 -13.585938 8.5625 -13.328125 C 8.882812 -13.078125 9.128906 -12.78125 9.296875 -12.4375 C 9.460938 -12.101562 9.546875 -11.753906 9.546875 -11.390625 C 9.546875 -11.191406 9.507812 -11.003906 9.4375 -10.828125 C 9.375 -10.648438 9.28125 -10.492188 9.15625 -10.359375 C 9.039062 -10.222656 8.890625 -10.113281 8.703125 -10.03125 C 8.523438 -9.957031 8.316406 -9.921875 8.078125 -9.921875 C 7.867188 -9.921875 7.675781 -9.953125 7.5 -10.015625 C 7.320312 -10.085938 7.171875 -10.1875 7.046875 -10.3125 C 6.921875 -10.4375 6.820312 -10.582031 6.75 -10.75 C 6.6875 -10.914062 6.65625 -11.101562 6.65625 -11.3125 C 6.65625 -11.53125 6.691406 -11.726562 6.765625 -11.90625 C 6.847656 -12.082031 6.953125 -12.226562 7.078125 -12.34375 C 7.210938 -12.46875 7.367188 -12.5625 7.546875 -12.625 C 7.734375 -12.6875 7.929688 -12.71875 8.140625 -12.71875 L 8.140625 -12.765625 C 8.097656 -12.804688 8.019531 -12.875 7.90625 -12.96875 C 7.789062 -13.070312 7.628906 -13.175781 7.421875 -13.28125 C 7.210938 -13.382812 6.957031 -13.472656 6.65625 -13.546875 C 6.351562 -13.617188 5.992188 -13.65625 5.578125 -13.65625 Z M 5.578125 -13.65625 "/></g></g></g><g clip-path="url(#778a7ad287)"><path fill="#ffffff" d="M 49.589844 16.765625 C 48.730469 16.765625 48.03125 17.464844 48.03125 18.324219 C 48.03125 19.179688 48.730469 19.878906 49.589844 19.878906 C 50.445312 19.878906 51.144531 19.179688 51.144531 18.324219 C 51.144531 17.464844 50.445312 16.765625 49.589844 16.765625 Z M 49.589844 19.273438 C 49.0625 19.273438 48.636719 18.847656 48.636719 18.324219 C 48.636719 17.796875 49.0625 17.371094 49.589844 17.371094 C 50.113281 17.371094 50.539062 17.796875 50.539062 18.324219 C 50.539062 18.847656 50.113281 19.273438 49.589844 19.273438 Z M 51.984375 17.59375 C 51.820312 17.59375 51.757812 17.46875 51.742188 17.429688 C 51.726562 17.394531 51.683594 17.257812 51.796875 17.140625 C 51.886719 17.054688 51.9375 16.933594 51.9375 16.808594 C 51.9375 16.683594 51.886719 16.566406 51.796875 16.476562 L 51.433594 16.113281 C 51.25 15.929688 50.953125 15.929688 50.769531 16.113281 C 50.652344 16.230469 50.519531 16.1875 50.480469 16.171875 C 50.441406 16.152344 50.316406 16.089844 50.316406 15.925781 C 50.316406 15.664062 50.105469 15.453125 49.84375 15.453125 L 49.332031 15.453125 C 49.070312 15.453125 48.859375 15.664062 48.859375 15.925781 C 48.859375 16.089844 48.734375 16.152344 48.695312 16.171875 C 48.65625 16.1875 48.523438 16.230469 48.40625 16.113281 C 48.222656 15.929688 47.925781 15.929688 47.742188 16.113281 L 47.378906 16.476562 C 47.289062 16.566406 47.238281 16.683594 47.238281 16.808594 C 47.238281 16.933594 47.289062 17.054688 47.378906 17.140625 C 47.492188 17.257812 47.449219 17.394531 47.433594 17.429688 C 47.417969 17.46875 47.355469 17.59375 47.191406 17.59375 C 46.929688 17.59375 46.71875 17.808594 46.71875 18.066406 L 46.71875 18.578125 C 46.71875 18.839844 46.929688 19.050781 47.191406 19.050781 C 47.355469 19.050781 47.417969 19.175781 47.433594 19.214844 C 47.449219 19.253906 47.492188 19.386719 47.378906 19.503906 C 47.289062 19.59375 47.238281 19.710938 47.238281 19.835938 C 47.238281 19.964844 47.289062 20.082031 47.378906 20.171875 L 47.742188 20.535156 C 47.828125 20.621094 47.949219 20.671875 48.074219 20.671875 C 48.199219 20.671875 48.316406 20.621094 48.40625 20.535156 C 48.523438 20.417969 48.65625 20.460938 48.695312 20.476562 C 48.734375 20.492188 48.859375 20.554688 48.859375 20.722656 C 48.859375 20.980469 49.070312 21.191406 49.332031 21.191406 L 49.84375 21.191406 C 50.105469 21.191406 50.316406 20.980469 50.316406 20.722656 C 50.316406 20.558594 50.441406 20.492188 50.480469 20.476562 C 50.519531 20.460938 50.652344 20.417969 50.769531 20.535156 C 50.859375 20.621094 50.976562 20.671875 51.101562 20.671875 C 51.226562 20.671875 51.347656 20.621094 51.433594 20.535156 L 51.796875 20.171875 C 51.980469 19.988281 51.980469 19.6875 51.796875 19.503906 C 51.683594 19.386719 51.726562 19.253906 51.742188 19.214844 C 51.757812 19.175781 51.820312 19.050781 51.984375 19.050781 C 52.246094 19.050781 52.457031 18.839844 52.457031 18.578125 L 52.457031 18.066406 C 52.457031 17.808594 52.246094 17.59375 51.984375 17.59375 Z M 51.851562 18.457031 C 51.550781 18.5 51.300781 18.695312 51.183594 18.984375 C 51.0625 19.273438 51.101562 19.585938 51.28125 19.832031 L 51.09375 20.019531 C 50.851562 19.835938 50.539062 19.796875 50.25 19.917969 C 49.957031 20.039062 49.765625 20.289062 49.71875 20.585938 L 49.457031 20.585938 C 49.410156 20.285156 49.21875 20.035156 48.925781 19.917969 C 48.636719 19.796875 48.324219 19.835938 48.082031 20.019531 L 47.894531 19.832031 C 48.074219 19.585938 48.113281 19.273438 47.992188 18.984375 C 47.875 18.695312 47.625 18.5 47.324219 18.457031 L 47.324219 18.191406 C 47.625 18.144531 47.875 17.953125 47.992188 17.664062 C 48.113281 17.375 48.074219 17.058594 47.894531 16.816406 L 48.082031 16.628906 C 48.324219 16.808594 48.636719 16.847656 48.925781 16.730469 C 49.21875 16.609375 49.410156 16.359375 49.457031 16.058594 L 49.71875 16.058594 C 49.765625 16.359375 49.957031 16.609375 50.25 16.730469 C 50.539062 16.847656 50.851562 16.808594 51.09375 16.628906 L 51.28125 16.816406 C 51.101562 17.058594 51.0625 17.375 51.183594 17.664062 C 51.300781 17.953125 51.550781 18.144531 51.851562 18.191406 Z M 42.878906 18.246094 C 42.863281 16.722656 42.332031 15.324219 41.378906 14.300781 C 40.382812 13.222656 39.003906 12.609375 37.398438 12.523438 C 35.460938 12.421875 33.917969 12.875 32.8125 13.871094 C 31.789062 14.800781 31.207031 16.160156 31.132812 17.804688 C 30.984375 21.027344 32.152344 22.613281 33.089844 23.886719 C 33.65625 24.65625 34.105469 25.261719 34.09375 26.035156 L 34.09375 28.476562 C 34.09375 28.644531 34.230469 28.777344 34.398438 28.777344 L 39.878906 28.777344 C 40.046875 28.777344 40.179688 28.644531 40.179688 28.476562 L 40.179688 26.324219 C 41.003906 26.257812 41.6875 25.910156 42.164062 25.3125 C 42.625 24.738281 42.878906 23.941406 42.878906 23.070312 L 42.878906 22.589844 L 43.96875 22.589844 C 44.238281 22.589844 44.480469 22.453125 44.617188 22.222656 C 44.757812 21.984375 44.761719 21.703125 44.628906 21.460938 Z M 44.097656 21.914062 C 44.082031 21.941406 44.042969 21.984375 43.96875 21.984375 L 42.578125 21.984375 C 42.410156 21.984375 42.277344 22.121094 42.277344 22.289062 L 42.277344 23.070312 C 42.277344 24.355469 41.644531 25.734375 39.878906 25.734375 C 39.710938 25.734375 39.574219 25.867188 39.574219 26.035156 L 39.574219 28.175781 L 34.699219 28.175781 L 34.699219 26.039062 C 34.710938 25.066406 34.1875 24.355469 33.578125 23.53125 C 32.695312 22.332031 31.597656 20.839844 31.734375 17.832031 C 31.804688 16.351562 32.316406 15.140625 33.21875 14.320312 C 34.199219 13.433594 35.59375 13.035156 37.367188 13.128906 C 40.304688 13.285156 42.277344 15.371094 42.277344 18.324219 C 42.277344 18.375 42.289062 18.421875 42.3125 18.46875 L 44.097656 21.75 C 44.140625 21.824219 44.109375 21.886719 44.097656 21.914062 Z M 39.707031 16.402344 C 39.574219 15.789062 39.035156 15.339844 38.382812 15.339844 C 38.253906 15.339844 38.128906 15.359375 38.003906 15.394531 C 37.726562 15.015625 37.28125 14.78125 36.800781 14.78125 C 36.417969 14.78125 36.058594 14.925781 35.785156 15.179688 C 35.601562 15.117188 35.410156 15.085938 35.214844 15.085938 C 34.257812 15.085938 33.480469 15.863281 33.480469 16.820312 C 33.480469 17.230469 33.617188 17.613281 33.871094 17.921875 C 33.78125 18.183594 33.777344 18.445312 33.863281 18.695312 C 33.972656 19.019531 34.230469 19.292969 34.59375 19.460938 C 34.808594 19.5625 34.839844 19.675781 34.851562 19.714844 C 34.902344 19.914062 34.757812 20.183594 34.699219 20.261719 C 34.632812 20.355469 34.625 20.476562 34.675781 20.578125 C 34.730469 20.679688 34.832031 20.742188 34.945312 20.742188 L 36.113281 20.742188 C 36.199219 20.742188 36.277344 20.707031 36.335938 20.644531 C 36.390625 20.585938 36.421875 20.5 36.414062 20.417969 C 36.414062 20.390625 36.382812 19.78125 36.90625 19.492188 C 37.910156 19.722656 38.433594 19.292969 38.71875 19.058594 C 38.738281 19.042969 38.753906 19.03125 38.769531 19.015625 C 38.8125 18.980469 38.839844 18.96875 38.847656 18.96875 C 38.863281 18.96875 38.898438 18.984375 38.925781 18.992188 C 39.027344 19.027344 39.175781 19.082031 39.390625 19.082031 C 40.140625 19.082031 40.75 18.472656 40.75 17.722656 C 40.75 17.082031 40.308594 16.546875 39.707031 16.402344 Z M 39.390625 18.476562 C 39.28125 18.476562 39.210938 18.453125 39.132812 18.425781 C 38.917969 18.347656 38.699219 18.296875 38.390625 18.542969 C 38.375 18.558594 38.355469 18.574219 38.335938 18.589844 C 38.082031 18.800781 37.730469 19.085938 36.949219 18.878906 C 36.882812 18.859375 36.8125 18.867188 36.75 18.894531 C 36.070312 19.1875 35.878906 19.769531 35.828125 20.136719 L 35.417969 20.136719 C 35.46875 19.964844 35.488281 19.765625 35.4375 19.5625 C 35.386719 19.367188 35.242188 19.09375 34.847656 18.910156 C 34.636719 18.8125 34.492188 18.667969 34.433594 18.5 C 34.382812 18.347656 34.402344 18.179688 34.496094 18 C 34.558594 17.878906 34.535156 17.734375 34.4375 17.640625 C 34.210938 17.425781 34.082031 17.132812 34.082031 16.820312 C 34.082031 16.195312 34.589844 15.6875 35.214844 15.6875 C 35.394531 15.6875 35.566406 15.730469 35.726562 15.8125 C 35.855469 15.875 36.011719 15.839844 36.101562 15.726562 C 36.273438 15.511719 36.527344 15.386719 36.800781 15.386719 C 37.144531 15.386719 37.460938 15.585938 37.605469 15.898438 C 37.640625 15.976562 37.703125 16.03125 37.785156 16.058594 C 37.863281 16.085938 37.949219 16.078125 38.023438 16.039062 C 38.132812 15.976562 38.257812 15.945312 38.382812 15.945312 C 38.792969 15.945312 39.125 16.269531 39.136719 16.679688 C 39.140625 16.835938 39.265625 16.964844 39.425781 16.972656 C 39.828125 16.988281 40.144531 17.320312 40.144531 17.722656 C 40.144531 18.140625 39.808594 18.476562 39.390625 18.476562 Z M 51.761719 24.703125 C 51.703125 24.78125 51.613281 24.820312 51.523438 24.820312 C 51.457031 24.820312 51.390625 24.800781 51.335938 24.757812 L 43.347656 18.5625 C 43.273438 18.503906 43.230469 18.417969 43.230469 18.324219 C 43.230469 18.230469 43.273438 18.140625 43.347656 18.085938 L 51.335938 11.886719 C 51.46875 11.785156 51.660156 11.808594 51.761719 11.941406 C 51.863281 12.074219 51.839844 12.261719 51.707031 12.367188 L 44.027344 18.324219 L 51.707031 24.28125 C 51.839844 24.382812 51.863281 24.574219 51.761719 24.703125 Z M 51.761719 24.703125 " fill-opacity="1" fill-rule="nonzero"/></g></svg>